<?xml version="1.0" encoding="UTF-8"?>
<svg version="1.1" xmlns="http://www.w3.org/2000/svg" width="730" height="189">
<path d="M0 0 C1.70512001 -0.00856522 1.70512001 -0.00856522 3.44468689 -0.01730347 C4.6827005 -0.01842133 5.92071411 -0.01953918 7.19624329 -0.02069092 C9.16297249 -0.02813828 9.16297249 -0.02813828 11.16943359 -0.03573608 C14.76060303 -0.04882433 18.35175379 -0.05529827 21.94294333 -0.05974674 C24.19019363 -0.06268381 26.4374389 -0.06678985 28.68468666 -0.07125092 C35.72623758 -0.08491768 42.76777692 -0.09458782 49.80934018 -0.09845281 C57.91814615 -0.10292887 66.02678318 -0.12045915 74.1355378 -0.1494534 C80.41600118 -0.17112503 86.69641722 -0.18116004 92.97691756 -0.18249393 C96.7219489 -0.18353822 100.46682124 -0.1893653 104.21181297 -0.20731354 C108.39552809 -0.22697494 112.57889318 -0.2224835 116.76264954 -0.21600342 C118.60448822 -0.22982559 118.60448822 -0.22982559 120.48353577 -0.243927 C131.13470349 -0.19238406 140.50971266 1.38059749 148.30293274 9.14044189 C152.85787036 14.94575455 155.41983376 19.47384786 155.45010376 26.94540405 C155.46083672 28.76215889 155.46083672 28.76215889 155.4717865 30.61561584 C155.47462675 31.9599912 155.47733848 33.30436683 155.47993469 34.64874268 C155.4862006 36.06313748 155.49284752 37.47753064 155.49984741 38.891922 C155.52088046 43.53985449 155.5312512 48.18778727 155.54121399 52.83575439 C155.54526226 54.43750908 155.5493792 56.03926358 155.55356407 57.64101791 C155.57261651 65.16898631 155.58684569 72.69694492 155.59517604 80.22493279 C155.60493976 88.90432574 155.63123628 97.58346308 155.67167693 106.262766 C155.70188417 112.9771388 155.7166494 119.69143854 155.71995705 126.40587795 C155.7223029 130.41308681 155.73120189 134.42002262 155.75641823 138.42715836 C155.77978398 142.20128592 155.78389842 145.97496232 155.77365685 149.7491436 C155.77292929 151.78350069 155.79196196 153.8178353 155.8117218 155.85209656 C155.760655 164.88381037 154.33502143 172.84805965 148.00825214 179.73783302 C139.4622431 186.76684358 130.57774014 188.01210488 119.86470032 187.8850708 C118.45882087 187.88993986 117.05294841 187.89739125 115.64709473 187.90719604 C111.8659518 187.92583729 108.08586032 187.90731929 104.30480027 187.88053179 C100.32921808 187.85771821 96.35368071 187.86613158 92.37805176 187.87002563 C85.70806415 187.87178521 79.03848555 187.84975916 72.36860657 187.81280518 C64.67600699 187.77042684 56.98400476 187.76346479 49.29131204 187.77592909 C41.86205334 187.7873464 34.43300325 187.77599332 27.00377464 187.753582 C23.85445453 187.74433485 20.70526293 187.74252262 17.555933 187.74675369 C13.84477204 187.75054129 10.1342129 187.73414746 6.42318916 187.7026329 C4.42477836 187.6902048 2.42627602 187.69712843 0.42784119 187.70477295 C-9.25985421 187.59101266 -16.93404754 185.66728804 -24.14002419 178.93339539 C-30.95451147 171.08643279 -31.42113623 162.76725623 -31.34403992 152.76153564 C-31.35082898 151.33786913 -31.3597393 149.91421142 -31.37059021 148.49057007 C-31.39323774 144.651548 -31.38460834 140.81320345 -31.36869478 136.97417068 C-31.35595965 132.94030293 -31.36779689 128.90648987 -31.37562561 124.87261963 C-31.38470017 118.10078611 -31.37279221 111.32922601 -31.34892273 104.55743408 C-31.32171546 96.74896169 -31.3305312 88.94114225 -31.35805476 81.13268566 C-31.38080771 74.40621226 -31.38391584 67.67993443 -31.37086141 60.95343494 C-31.36310072 56.94574609 -31.36193127 52.93836328 -31.37854385 48.93069458 C-31.39308007 45.16122024 -31.38280259 41.39258062 -31.35407257 37.62319565 C-31.34440121 35.5951118 -31.35908353 33.56695662 -31.37471008 31.53890991 C-31.27311721 22.69213008 -29.86880825 15.64981596 -23.72034645 9.0037384 C-16.85796619 2.49376322 -9.39528029 0.02836436 0 0 Z " fill="#F4761E" transform="translate(574.6970672607422,-0.14044189453125)"/>
<path d="M0 0 C15.68086324 13.98926326 17.09886491 30.93460964 18.28125 51.03515625 C-2.83875 51.03515625 -23.95875 51.03515625 -45.71875 51.03515625 C-47.00798485 47.1674517 -46.86380706 43.50078309 -46.84375 39.47265625 C-46.84955078 38.30186523 -46.84955078 38.30186523 -46.85546875 37.10742188 C-46.84542749 31.28851123 -46.84542749 31.28851123 -45.71875 29.03515625 C-34.82875 28.70515625 -23.93875 28.37515625 -12.71875 28.03515625 C-15.72185132 19.80444145 -15.72185132 19.80444145 -21.8046875 15.6875 C-27.88974746 13.61361222 -32.64611327 13.60710345 -38.609375 15.91015625 C-44.21745403 18.90113173 -46.75758337 23.33461625 -48.59375 29.28515625 C-51.12625677 40.33472449 -50.05058268 51.24808968 -45.03125 61.47265625 C-41.26812708 65.64260327 -37.69003958 68.53777881 -32.03515625 69.484375 C-25.87179243 69.73227729 -20.70841883 68.80753873 -15.71875 65.03515625 C-14.8215625 63.67390625 -14.8215625 63.67390625 -13.90625 62.28515625 C-11.71875 60.03515625 -11.71875 60.03515625 -9.52734375 59.68359375 C-6.56899408 59.65775664 -3.66961113 59.82054817 -0.71875 60.03515625 C1.10849609 60.12023437 1.10849609 60.12023437 2.97265625 60.20703125 C13.55120634 60.78063355 13.55120634 60.78063355 17.28125 63.03515625 C12.06123955 75.36382415 3.76861732 84.61600408 -8.40234375 90.28515625 C-21.33728841 95.12945282 -38.01326231 95.184872 -50.96484375 90.35546875 C-62.44783115 84.85014997 -70.63442195 76.56803573 -75.7109375 64.90625 C-80.76612339 50.50484833 -81.351224 32.02614431 -74.71875 18.03515625 C-68.00554787 4.93919459 -58.22424031 -2.65287621 -44.55078125 -7.77734375 C-29.65653575 -11.92583766 -12.27043759 -9.38210407 0 0 Z " fill="#A2A4A6" transform="translate(505.71875,36.96484375)"/>
<path d="M0 0 C9.57 0 19.14 0 29 0 C29 5.94 29 11.88 29 18 C34.94 18 40.88 18 47 18 C47 24.93 47 31.86 47 39 C41.06 39 35.12 39 29 39 C29.09334542 46.08438611 29.19939643 53.16842275 29.31738281 60.25244141 C29.35573647 62.66384628 29.3905779 65.07530962 29.421875 67.48681641 C29.46738703 70.94715313 29.52540404 74.40708508 29.5859375 77.8671875 C29.59748871 78.95055389 29.60903992 80.03392029 29.62094116 81.15011597 C29.64081085 82.1510025 29.66068054 83.15188904 29.68115234 84.18310547 C29.69447601 85.06690887 29.70779968 85.95071228 29.7215271 86.86129761 C29.80669004 89.2132825 29.80669004 89.2132825 32 91 C34.57685678 91.30690654 37.04103303 91.51014493 39.625 91.625 C42.05875 91.74875 44.4925 91.8725 47 92 C47 99.26 47 106.52 47 114 C38.41845818 118.29077091 21.80974067 116.7703587 13 114 C7.32281884 111.66897198 4.24048873 108.7269866 1.69140625 103.16015625 C0.21804955 98.55695706 -0.12440264 93.98596896 -0.11352539 89.17822266 C-0.11344986 88.05751373 -0.11337433 86.93680481 -0.11329651 85.78213501 C-0.10813522 84.58817108 -0.10297394 83.39420715 -0.09765625 82.1640625 C-0.0962413 80.92957367 -0.09482635 79.69508484 -0.09336853 78.42318726 C-0.08778272 74.49043325 -0.07523275 70.55773672 -0.0625 66.625 C-0.05691912 63.95442792 -0.05292058 61.28385637 -0.04882812 58.61328125 C-0.03781792 52.07549878 -0.02056297 45.53775912 0 39 C-4.29 39 -8.58 39 -13 39 C-13 32.07 -13 25.14 -13 18 C-8.71 18 -4.42 18 0 18 C0 12.06 0 6.12 0 0 Z " fill="#A2A4A6" transform="translate(266,13)"/>
<path d="M0 0 C9.57 0 19.14 0 29 0 C29 5.94 29 11.88 29 18 C34.94 18 40.88 18 47 18 C47 24.93 47 31.86 47 39 C41.06 39 35.12 39 29 39 C29.06874784 45.92378063 29.15665215 52.84694988 29.26245117 59.77026367 C29.2957402 62.12631461 29.32375961 64.48244606 29.34643555 66.83862305 C29.37990803 70.22219207 29.43222092 73.60502054 29.48828125 76.98828125 C29.49467117 78.04461258 29.5010611 79.10094391 29.50764465 80.18928528 C29.52743881 81.17007553 29.54723297 82.15086578 29.56762695 83.16137695 C29.58428154 84.45710381 29.58428154 84.45710381 29.60127258 85.77900696 C30.08869963 88.49407505 30.78944882 89.38471826 33 91 C37.66295218 91.71111378 42.27927076 91.78345279 47 92 C47 99.26 47 106.52 47 114 C38.39583311 118.30208344 21.83778504 116.73061132 13 114 C6.83169531 110.80569936 3.27735051 106.5092745 1 100 C-0.25928514 92.41831825 -0.13579962 84.65137781 -0.09765625 76.98828125 C-0.0962413 75.89404343 -0.09482635 74.7998056 -0.09336853 73.67240906 C-0.08782531 70.21907678 -0.07528379 66.76581228 -0.0625 63.3125 C-0.05747765 60.95377699 -0.05291604 58.59505294 -0.04882812 56.23632812 C-0.03787456 50.49085979 -0.02064991 44.74544134 0 39 C-4.29 39 -8.58 39 -13 39 C-13 32.07 -13 25.14 -13 18 C-8.71 18 -4.42 18 0 18 C0 12.06 0 6.12 0 0 Z " fill="#A2A4A6" transform="translate(52,13)"/>
<path d="M0 0 C8.25 0 16.5 0 25 0 C25 46.53 25 93.06 25 141 C15.43 141 5.86 141 -4 141 C-4.09047195 124.24007165 -4.16408145 107.48035337 -4.20724869 90.72024822 C-4.22782926 82.93735161 -4.25586303 75.15461808 -4.30175781 67.37182617 C-4.34176429 60.58430214 -4.36746552 53.79689628 -4.37635398 47.00925761 C-4.38154553 43.41885636 -4.39365189 39.828793 -4.42292023 36.2385006 C-4.45541318 32.21964225 -4.45595063 28.20136251 -4.45410156 24.18237305 C-4.46848267 23.00632507 -4.48286377 21.8302771 -4.49768066 20.61859131 C-4.49218201 19.50962997 -4.48668335 18.40066864 -4.48101807 17.25810242 C-4.48470524 16.30957744 -4.48839241 15.36105246 -4.49219131 14.38378429 C-3.76917773 9.41311146 -1.71656888 4.72056441 0 0 Z " fill="#FEFEFE" transform="translate(632,24)"/>
<path d="M0 0 C0 6.93 0 13.86 0 21 C-4.95 22.485 -4.95 22.485 -10 24 C-10.73334429 27.97754128 -10.73334429 27.97754128 -11 32 C-5.47428727 33.75713373 0.06856066 35.29082226 5.71484375 36.61328125 C6.89626953 36.89236328 8.07769531 37.17144531 9.29492188 37.45898438 C11.71702302 38.02652228 14.14153354 38.58387711 16.56835938 39.13085938 C26.72752008 41.56130709 36.86524534 44.75320605 42.8515625 53.87109375 C47.43544488 62.36842673 48.23546601 70.68515556 46 80.0625 C43.18411861 88.3284744 37.61832573 93.45979011 30 97.4375 C20.91554896 101.53685853 13.99856515 102.22724012 4 102 C4 95.07 4 88.14 4 81 C7.3 80.01 10.6 79.02 14 78 C17.15115454 75.39944021 17.15115454 75.39944021 17.5 72.5625 C16.78144407 68.87990085 15.06126437 68.08153562 12 66 C8.79167281 64.80567443 8.79167281 64.80567443 5.265625 64 C4.62816345 63.83757812 3.9907019 63.67515625 3.33392334 63.5078125 C1.30876267 62.99309319 -0.71997959 62.49517411 -2.75 62 C-28.96178275 55.53854946 -28.96178275 55.53854946 -36.38671875 45.0390625 C-40.25849154 37.73024229 -40.28519406 28.94406287 -38.234375 21.0546875 C-34.81660835 11.96776822 -29.71089047 7.15828516 -21 3 C-13.65602689 0.44059195 -7.93355257 0 0 0 Z " fill="#A2A4A6" transform="translate(148,28)"/>
<path d="M0 0 C9.24 0 18.48 0 28 0 C28 41.58 28 83.16 28 126 C18.76 126 9.52 126 0 126 C0 84.42 0 42.84 0 0 Z " fill="#A2A4A6" transform="translate(324,2)"/>
<path d="M0 0 C9.1439719 7.5183769 12.36120837 14.71898444 13.8125 26.3125 C13.89501701 28.687589 13.93038597 31.06464411 13.92602539 33.44116211 C13.92617142 34.11518066 13.92631744 34.78919922 13.9264679 35.48364258 C13.92577769 37.68574372 13.91802764 39.8877576 13.91015625 42.08984375 C13.90828889 43.62683567 13.90686649 45.16382819 13.90586853 46.70082092 C13.90206837 50.72687451 13.8922597 54.75289146 13.88116455 58.77893066 C13.8708964 62.89493311 13.86635938 67.01094153 13.86132812 71.12695312 C13.85063497 79.18882069 13.83305868 87.25065155 13.8125 95.3125 C4.2425 95.3125 -5.3275 95.3125 -15.1875 95.3125 C-15.22488281 90.61773437 -15.26226562 85.92296875 -15.30078125 81.0859375 C-15.33107 78.10543257 -15.36222363 75.12498671 -15.39648438 72.14453125 C-15.45074001 67.41751128 -15.5018525 62.69060815 -15.53393555 57.96337891 C-15.56001299 54.15063174 -15.60044611 50.33827855 -15.65068626 46.52577591 C-15.6673251 45.07383768 -15.67885794 43.62183134 -15.68511391 42.16981125 C-15.69478805 40.13020629 -15.72288366 38.09160243 -15.75512695 36.05224609 C-15.76623001 34.89308685 -15.77733307 33.73392761 -15.78877258 32.53964233 C-16.23956045 28.89114324 -17.31184567 26.45677957 -19.1875 23.3125 C-23.49918711 20.16515034 -29.10187876 20.68601043 -34.1875 21.3125 C-36.60329903 22.38457146 -38.11843842 23.60552419 -40.1875 25.3125 C-41.1775 25.6425 -42.1675 25.9725 -43.1875 26.3125 C-43.33283755 22.729594 -43.42157931 19.14744583 -43.5 15.5625 C-43.54189453 14.54671875 -43.58378906 13.5309375 -43.62695312 12.484375 C-43.75073716 4.95830595 -43.75073716 4.95830595 -40.94921875 1.74609375 C-40.03785156 1.27300781 -39.12648438 0.79992188 -38.1875 0.3125 C-37.4346875 -0.09355469 -36.681875 -0.49960937 -35.90625 -0.91796875 C-35.1740625 -1.23378906 -34.441875 -1.54960937 -33.6875 -1.875 C-32.9553125 -2.19855469 -32.223125 -2.52210937 -31.46875 -2.85546875 C-20.94191109 -6.69488089 -9.74771199 -5.16055341 0 0 Z " fill="#A2A4A6" transform="translate(398.1875,32.6875)"/>
<path d="M0 0 C9.24 0 18.48 0 28 0 C28 32.01 28 64.02 28 97 C18.76 97 9.52 97 0 97 C0 64.99 0 32.98 0 0 Z " fill="#A2A4A6" transform="translate(0,31)"/>
<path d="M0 0 C0.21914062 0.67546875 0.43828125 1.3509375 0.6640625 2.046875 C2.73111877 7.86152111 4.21397375 11.16602796 10 14 C12.475 14.99 12.475 14.99 15 16 C15 22.93 15 29.86 15 37 C2.75832326 37 -9.04649466 34.40061151 -18.328125 25.94921875 C-24.55816377 18.68569224 -26.96292306 10.41754268 -27 1 C-17.97746114 0.16069406 -9.0598059 -0.12224626 0 0 Z " fill="#A2A4A6" transform="translate(133,93)"/>
<path d="M0 0 C12.81943388 0 23.53133497 2.65327236 32.9140625 11.8828125 C37.91029372 17.96197068 40.25064658 25.16033194 40 33 C36.95236066 34.01587978 34.65281033 34.19804406 31.45703125 34.31640625 C30.38388672 34.35830078 29.31074219 34.40019531 28.20507812 34.44335938 C27.08552734 34.48267578 25.96597656 34.52199219 24.8125 34.5625 C23.68134766 34.60568359 22.55019531 34.64886719 21.38476562 34.69335938 C18.58996646 34.79949099 15.79507838 34.90154385 13 35 C12.80446533 34.37279053 12.60893066 33.74558105 12.4074707 33.09936523 C12.14538818 32.28153564 11.88330566 31.46370605 11.61328125 30.62109375 C11.35587158 29.80825928 11.09846191 28.9954248 10.83325195 28.15795898 C9.7486959 25.34917172 8.70382815 24.31328796 6 23 C4.02 22.34 2.04 21.68 0 21 C0 14.07 0 7.14 0 0 Z " fill="#A2A4A6" transform="translate(152,28)"/>
<path d="M0 0 C9.24 0 18.48 0 28 0 C28 8.25 28 16.5 28 25 C18.76 25 9.52 25 0 25 C0 16.75 0 8.5 0 0 Z " fill="#A2A4A6" transform="translate(0,2)"/>
<path d="M0 0 C0 8.91 0 17.82 0 27 C-9.24 27 -18.48 27 -28 27 C-28 19.74 -28 12.48 -28 5 C-25.751875 4.9175 -23.50375 4.835 -21.1875 4.75 C-15.01139388 4.42945253 -9.81917457 3.25289694 -4.07421875 0.83984375 C-2 0 -2 0 0 0 Z " fill="#FEF9F6" transform="translate(623,43)"/>
<path d="M0 0 C3.69462642 2.43509469 6.11611119 4.50271338 7.3203125 8.890625 C8.18756811 14.3155856 7.51916639 17.94258669 4.75 22.8125 C2.05428422 25.91665757 0.29258706 27.65085166 -3.859375 28.0859375 C-13.38348083 28.39393097 -13.38348083 28.39393097 -16.875 25.5625 C-20.94380998 20.85124634 -21.707384 17.49102198 -21.5625 11.3515625 C-21.05440273 7.22327218 -19.81230645 5.11652673 -17.25 1.8125 C-11.70223018 -2.09615601 -6.22114055 -2.27310905 0 0 Z M-10.4375 7.3125 C-13.1312413 11.02800524 -12.7541968 13.2747288 -12.25 17.8125 C-11.30791909 20.00661252 -11.30791909 20.00661252 -9.25 20.8125 C-6.16004903 20.89473366 -6.16004903 20.89473366 -3.25 19.8125 C-0.97743414 17.24351251 -1.25625515 15.69365219 -1.4375 12.25 C-2.34169115 8.29722897 -2.34169115 8.29722897 -5.25 5.8125 C-8.27970006 5.52973582 -8.27970006 5.52973582 -10.4375 7.3125 Z " fill="#A2A4A6" transform="translate(86.25,161.1875)"/>
<path d="M0 0 C2.64123413 1.80376965 3.61979923 2.73335753 4.5625 5.75 C4.5625 6.74 4.5625 7.73 4.5625 8.75 C2.2525 8.75 -0.0575 8.75 -2.4375 8.75 C-2.4375 9.41 -2.4375 10.07 -2.4375 10.75 C-1.674375 10.811875 -0.91125 10.87375 -0.125 10.9375 C2.5625 11.75 2.5625 11.75 4.4375 13.875 C5.90382638 17.62227854 5.56455083 19.88494678 4.5625 23.75 C2.66716125 26.33455285 1.67423483 26.71275506 -1.4375 27.75 C-3.39225009 27.8947963 -5.3526138 27.97067502 -7.3125 28 C-8.85550781 28.03867188 -8.85550781 28.03867188 -10.4296875 28.078125 C-13.85061476 27.70493294 -15.67742755 26.76490192 -18.4375 24.75 C-20.47421629 21.74341882 -20.4375 20.55903404 -20.4375 16.75 C-15.11274116 16.39501608 -15.11274116 16.39501608 -12.4375 16.75 C-10.1875 18.8125 -10.1875 18.8125 -8.4375 20.75 C-6.21891747 20.61358623 -6.21891747 20.61358623 -4.4375 19.75 C-7.68725725 17.58349517 -10.57117315 16.711012 -14.28125 15.62890625 C-16.66412977 14.65762374 -17.86891257 13.78080442 -19.4375 11.75 C-19.9802086 7.56339081 -19.8950921 5.47583574 -17.625 1.875 C-12.86993975 -2.74420139 -5.87775857 -2.13736675 0 0 Z M-10.4375 5.75 C-10.7675 6.41 -11.0975 7.07 -11.4375 7.75 C-8.53149739 9.00664978 -6.64145416 9.75 -3.4375 9.75 C-4.0975 8.43 -4.7575 7.11 -5.4375 5.75 C-7.0875 5.75 -8.7375 5.75 -10.4375 5.75 Z " fill="#A2A4A6" transform="translate(511.4375,161.25)"/>
<path d="M0 0 C3.66666667 0 7.33333333 0 11 0 C11.73992187 -0.04640625 12.47984375 -0.0928125 13.2421875 -0.140625 C20.33877804 -0.43543885 20.33877804 -0.43543885 23.5625 1.6875 C26.79175087 6.88238184 26.1198121 12.9005361 26.0625 18.8125 C26.05798828 19.69615234 26.05347656 20.57980469 26.04882812 21.49023438 C26.03709866 23.66018559 26.01916495 25.83010172 26 28 C23.03 28 20.06 28 17 28 C16.505 18.595 16.505 18.595 16 9 C12.14061025 7.65486576 12.14061025 7.65486576 9 9 C9 15.27 9 21.54 9 28 C6.03 28 3.06 28 0 28 C0 18.76 0 9.52 0 0 Z " fill="#A2A4A6" transform="translate(425,161)"/>
<path d="M0 0 C2.97 0 5.94 0 9 0 C9 6.6 9 13.2 9 20 C11.31 20 13.62 20 16 20 C16 13.4 16 6.8 16 0 C18.97 0 21.94 0 25 0 C25 9.24 25 18.48 25 28 C21.803125 28.103125 18.60625 28.20625 15.3125 28.3125 C13.81456909 28.38078003 13.81456909 28.38078003 12.28637695 28.45043945 C8.08940238 28.51598414 5.5768065 28.32877971 1.875 26.21875 C-0.98690802 21.3058079 -0.5337022 16.7583924 -0.3125 11.1875 C-0.28994141 10.11306641 -0.26738281 9.03863281 -0.24414062 7.93164062 C-0.18535598 5.2863315 -0.10323957 2.64388587 0 0 Z " fill="#A2A4A6" transform="translate(185,161)"/>
<path d="M0 0 C0.125 3.375 0.125 3.375 0 7 C-0.66 7.66 -1.32 8.32 -2 9 C0.97 9.495 0.97 9.495 4 10 C3.505 9.649375 3.01 9.29875 2.5 8.9375 C0.26936034 6.05625711 0.80019379 3.52990974 1 0 C4.75431122 0.28879317 7.30384286 0.48704211 10.375 2.75 C12.15988669 5.22138157 12.66602151 6.99419362 13 10 C10.69 10 8.38 10 6 10 C6 10.66 6 11.32 6 12 C6.78375 12.103125 7.5675 12.20625 8.375 12.3125 C11 13 11 13 13 16 C13.6779661 23.11864407 13.6779661 23.11864407 11.125 26.4375 C7.56200114 29.05735211 5.39290498 29.09549793 1 29 C0.8125 26.1875 0.8125 26.1875 1 23 C2.51171875 21.30078125 2.51171875 21.30078125 4 20 C2.75283203 19.61908203 2.75283203 19.61908203 1.48046875 19.23046875 C0.39378906 18.88628906 -0.69289063 18.54210937 -1.8125 18.1875 C-3.43091797 17.68283203 -3.43091797 17.68283203 -5.08203125 17.16796875 C-7.86061249 16.05579232 -9.28763079 15.41608258 -11 13 C-11.77333333 6.04 -11.77333333 6.04 -9.1875 2.5625 C-5.93690372 0.24064552 -4.03200043 0 0 0 Z " fill="#A2A4A6" transform="translate(12,160)"/>
<path d="M0 0 C2.97 0 5.94 0 9 0 C9 1.65 9 3.3 9 5 C10.65 5 12.3 5 14 5 C14 7.31 14 9.62 14 12 C12.35 12 10.7 12 9 12 C9.33 16.29 9.66 20.58 10 25 C11.32 25.33 12.64 25.66 14 26 C14 28.31 14 30.62 14 33 C12.58376784 33.05447047 11.16691809 33.09300508 9.75 33.125 C8.96109375 33.14820313 8.1721875 33.17140625 7.359375 33.1953125 C4.73033049 32.97767636 3.18951811 32.46290812 1 31 C-0.25433458 27.23699626 -0.10695422 23.72789091 -0.0625 19.8125 C-0.05798828 19.06291016 -0.05347656 18.31332031 -0.04882812 17.54101562 C-0.03706354 15.69397617 -0.01912865 13.84697787 0 12 C-0.99 12 -1.98 12 -3 12 C-3 9.69 -3 7.38 -3 5 C-2.01 5 -1.02 5 0 5 C0 3.35 0 1.7 0 0 Z " fill="#A2A4A6" transform="translate(253,156)"/>
<path d="M0 0 C2.97 0 5.94 0 9 0 C9 11.88 9 23.76 9 36 C6.03 36 3.06 36 0 36 C0 24.12 0 12.24 0 0 Z " fill="#A2A4A6" transform="translate(134,153)"/>
<path d="M0 0 C2.64 0 5.28 0 8 0 C8 11.88 8 23.76 8 36 C5.36 36 2.72 36 0 36 C0 24.12 0 12.24 0 0 Z " fill="#A2A4A6" transform="translate(307,153)"/>
<path d="M0 0 C0.25 3.25 0.25 3.25 0 7 C-1.33333333 8.33333333 -2.66666667 9.66666667 -4 11 C-4.66666667 14.5 -4.66666667 14.5 -4 18 C-3.34 18.66 -2.68 19.32 -2 20 C0 22 0 22 0.25 25.75 C0.1675 26.8225 0.085 27.895 0 29 C-4.1500316 29.49405138 -5.71915862 29.18902785 -9.25 26.8125 C-13.13696423 22.83719567 -14.08334094 20.00376425 -14.375 14.5625 C-14.26949026 10.03311741 -12.98480212 7.48226914 -10 4 C-6.79711992 1.18534781 -4.34423264 0 0 0 Z " fill="#A2A4A6" transform="translate(370,160)"/>
<path d="M0 0 C5.44250545 0.38875039 8.16552996 2.16552996 12 6 C14.29447301 9.96318065 14.45985624 13.47808029 14 18 C12.58653975 22.14869684 10.97128004 25.20305227 7.5625 28 C4.83601998 29.0639922 2.89972626 29.24854797 0 29 C-0.25 25.75 -0.25 25.75 0 22 C2 20 2 20 4 18 C4.66666667 14.5 4.66666667 14.5 4 11 C3.34 10.34 2.68 9.68 2 9 C0 7 0 7 -0.25 3.25 C-0.1675 2.1775 -0.085 1.105 0 0 Z " fill="#A2A4A6" transform="translate(371,160)"/>
<path d="M0 0 C7.22891566 -0.48192771 7.22891566 -0.48192771 10.5 1.5625 C12.50478781 4.82028019 12.28862859 7.24782833 12 11 C4.69034995 10.40084836 4.69034995 10.40084836 2.0625 8.875 C0.45736848 6.04241497 0.30218074 3.20311579 0 0 Z " fill="#A2A4A6" transform="translate(0,178)"/>
</svg>
